<svg width="20" height="21" viewBox="0 0 20 21" fill="none" xmlns="http://www.w3.org/2000/svg">
<path d="M12.3691 0C15.5136 0 18.2938 1.55277 19.9902 3.93164L18.2139 4.95703C16.8788 3.18626 14.7577 2.04102 12.3691 2.04102C8.32917 2.04106 5.05383 5.31649 5.05371 9.35645C5.05371 13.3965 8.3291 16.6718 12.3691 16.6719C14.7226 16.6719 16.8142 15.5586 18.1523 13.832L19.9336 14.8604C18.2322 17.1947 15.4788 18.7129 12.3691 18.7129C7.2017 18.7128 3.0127 14.5239 3.0127 9.35645C3.01281 4.18908 7.20177 0.000116996 12.3691 0Z" fill="#4F75B2"/>
<rect x="3.89355" y="16.0371" width="3.28611" height="1.71252" transform="rotate(-42.5117 3.89355 16.0371)" fill="#4F75B2"/>
<rect y="19.0645" width="5.27928" height="2.62647" transform="rotate(-42.5117 0 19.0645)" fill="#4F75B2"/>
<path d="M12.2554 3.17773C13.9696 3.17778 15.5211 3.87287 16.6431 4.99512L15.524 6.11523C15.1669 6.47215 14.3568 6.23745 14.4029 5.74609C14.4681 5.35077 14.3602 4.92898 14.0455 4.61426C13.5387 4.10752 12.7094 4.10751 12.2027 4.61426C11.6963 5.12104 11.6961 5.95042 12.2027 6.45703C12.506 6.76026 12.9401 6.87872 13.3355 6.81348C13.8192 6.76741 14.0691 7.57005 13.6929 7.94629L13.6734 7.96484L12.2994 9.33984L13.6734 10.7139C14.1072 11.0555 14.8902 10.7869 14.8443 10.2803C14.779 9.84648 14.9097 9.38581 15.2398 9.05566C15.7926 8.50286 16.6753 8.50288 17.2281 9.05566C17.7809 9.60847 17.7809 10.4911 17.2281 11.0439C16.8979 11.3741 16.4373 11.5047 16.0035 11.4395C15.5045 11.3859 15.247 12.1579 15.5425 12.584L16.6656 13.7061C15.5418 14.8422 13.9818 15.5478 12.2554 15.5479C10.5493 15.5478 9.00429 14.8599 7.88336 13.7471L9.05133 12.5801C9.40835 12.2231 10.2185 12.4569 10.1724 12.9482C10.1072 13.3436 10.2141 13.7663 10.5289 14.0811C11.0355 14.5877 11.8649 14.5875 12.3716 14.0811C12.8784 13.5743 12.8784 12.745 12.3716 12.2383C12.0684 11.9351 11.6351 11.8157 11.2398 11.8809C10.7561 11.9269 10.5062 11.1243 10.8824 10.748L10.9019 10.7295L12.2759 9.35449L10.9019 7.98047C10.4759 7.6312 9.68532 7.90753 9.73101 8.41406C9.79626 8.84775 9.66547 9.30854 9.33551 9.63867C8.78271 10.1915 7.90004 10.1915 7.34722 9.63867C6.79441 9.08586 6.79441 8.2032 7.34722 7.65039C7.67736 7.32043 8.13814 7.18964 8.57183 7.25488C9.07062 7.30818 9.32726 6.53735 9.0318 6.11133L7.89117 4.9707C9.01143 3.86249 10.5534 3.17782 12.2554 3.17773Z" fill="#4F75B2"/>
</svg>
